<?xml version="1.0" encoding="utf-8"?>
<!-- Generator: Adobe Illustrator 27.0.1, SVG Export Plug-In . SVG Version: 6.00 Build 0)  -->
<svg version="1.1" id="Capa_2_00000109749246289294575790000014994493555094915744_"
	 xmlns="http://www.w3.org/2000/svg" xmlns:xlink="http://www.w3.org/1999/xlink" x="0px" y="0px" viewBox="0 0 3293.9 253.4"
	 style="enable-background:new 0 0 3293.9 253.4;" xml:space="preserve">
<style type="text/css">
	.st0{fill:#1565CA;}
</style>
<g>
	<path d="M367.9,238h-37.4l0-222.7l130.4,0c85.7,0.2,128.9,37.2,128.9,111.3l0.3,111.3h-37.7V126.7c0.2-49.4-30.6-74.2-92.4-74.1
		l-92.1,0.2V238z"/>
	<path d="M634.1,108l138.3,0h24.5h116.9c16.3,0,24.5-9.2,24.6-27.6c-0.1-18.6-8.1-27.7-24.4-27.7l-279.9,0.1V15.3l129.8,0.4
		l147.2-0.3c43.2,0,64.6,18.8,64.6,55.9l-0.4,18.9c-2,21.2-9.9,34.1-23.7,38.5c13.8,5.9,21.7,17.4,23.7,34.5l0.4,18.9
		c0,37.1-21.6,55.9-64.8,55.9l-146.9-0.4L634.1,238V108z M670.9,200.6l242.9,0c16.3,0,24.5-9,24.6-27.6
		c-0.1-18.4-8.3-27.6-24.6-27.6L670.9,145V200.6z"/>
	<path d="M1057.7,238h-37.1V15.3l130.1,0c85.7,0.2,128.8,37.2,128.8,111.3l0,111.4H1243V126.5c0.2-49.4-31.2-74-93.1-73.9l-92.2,0.2
		V238z"/>
	<path d="M1583.7,238h-37v-92.6h-222V108h222V15.3h37V238z"/>
	<path d="M26.2,156.1l0-10.9h0l0-2.9l0-3.9h0l0-5.2V121c1-37.2,13.5-64.7,37.3-82.4c0,0,0,0,0,0v0.3c10.2-7.6,22.6-13.4,37-17.4
		c10.4-2.9,21.8-4.8,34.3-5.8c0.8,0,1.6-0.1,2.5-0.1c5.6-0.2,11.4-0.1,17.4-0.1h131.1l-0.1,27.2l0,54.3l0,10.7h-37.4V52.1l-18.6-0.4
		L156.2,52c-52.2-0.1-82.3,17.6-90.4,52.8c-0.3,1.3-0.5,2.6-0.8,4c-0.2,1.4-0.4,2.7-0.6,4.1c-0.2,1.3-0.3,2.7-0.4,4.1
		c-0.3,2.9-0.4,5.9-0.4,8.9v0.2l0,12.3h0v62.4l18.6,0.4l73.6-0.2c53.7,0.1,84-18.6,91-55.9h39v0.2h0l0,92.6h-37.4v-23.7
		c-10.2,7.6-22.6,13.4-37,17.4c-10.4,2.9-21.8,4.8-34.3,5.8c-6.3,0.4-13,0.4-19.9,0.5l-131.1,0.1l0.2-27.6L26.2,156.1z"/>
	<g>
		<path class="st0" d="M2273.8,52.6h-259.6l0-37.4h259.6V52.6z M2273.8,145.3h-259.6l0-37.4h259.6V145.3z M2273.8,200.5v37.4h-259.6
			v-37.4H2273.8z"/>
		<g>
			<g>
				<g>
					<rect x="2622.6" y="15.2" class="st0" width="37.1" height="37.4"/>
				</g>
				<g>
					<rect x="2622.6" y="107.8" class="st0" width="37.1" height="129.7"/>
				</g>
			</g>
		</g>
		<polygon class="st0" points="3230.9,15.2 3230.8,150.6 3045.6,61.2 3045.6,15.2 3008.7,15.2 3008.6,237.9 3045.6,237.9 
			3045.6,102.1 3230.8,191.7 3230.8,237.9 3267.8,237.9 3267.8,15.2 		"/>
		<path class="st0" d="M2577.5,163v-55.2h-37.1v0h-185.3V80.2c0.1-18.6,8.5-27.6,24.8-27.6h197.5V15.2H2383
			c-43.2,0-64.8,18.9-64.8,56v18.9v55.2h27.1v0h195.2v27.4c0,18.8-8.5,27.8-24.8,27.8h-25h-172.6v37.4H2513
			c43.2,0,64.9-18.9,64.9-55.9L2577.5,163z"/>
		<path class="st0" d="M1969.8,156.2l0-10.9h0l0-2.9l0-3.9h0l0-5.2v-12.2c-1-37.2-13.5-64.7-37.3-82.4c0,0,0,0,0,0v0.3
			c-10.2-7.6-22.6-13.4-37-17.4c-10.4-2.9-21.8-4.8-34.3-5.8c-0.8,0-1.6-0.1-2.5-0.1c-5.6-0.2-11.4-0.3-17.4-0.4h-131.1l0.1,27.4
			l0,54.3l0,10.7h37.4l0-55h18.9h73.3c52.2-0.1,82.3,17,90.4,52.2c0.3,1.3,0.5,2.6,0.8,4c0.2,1.4,0.4,2.7,0.6,4.1
			c0.2,1.3,0.3,2.7,0.4,4.1c0.3,2.9,0.4,5.9,0.4,8.9v0.2l0,12.3h0v62.1h-18.6h-73.6c-53.7,0.1-84-18.1-91-55.4h-39v0.2h0l0,92.6
			h37.4v-23.7c10.2,7.6,22.6,13.4,37,17.4c10.4,2.9,21.8,4.8,34.3,5.8c6.3,0.4,13,0.4,19.9,0.5h131.1l-0.1-27.4L1969.8,156.2z"/>
		<path class="st0" d="M2704.4,156.3l0-10.9h0l0-2.9l0-3.9h0l0-5.2v-12.2c1-37.2,13.5-64.7,37.3-82.4c0,0,0,0,0,0V39
			c10.2-7.6,22.6-13.4,37-17.4c10.4-2.9,21.8-4.8,34.3-5.8c0.8,0,1.6-0.1,2.5-0.1c5.6-0.2,11.4-0.1,17.4-0.1h131.1l-0.1,27.2l0,54.3
			l0,10.7h-37.4V52.4l-18.6-0.4l-73.6,0.2c-52.2-0.1-82.3,17.6-90.4,52.8c-0.3,1.3-0.5,2.6-0.8,4c-0.2,1.4-0.4,2.7-0.6,4.1
			c-0.2,1.3-0.3,2.7-0.4,4.1c-0.3,2.9-0.4,5.9-0.4,8.9v0.2l0,12.3h0V201l18.6,0.4l73.6-0.2c53.7,0.1,84-18.6,91-55.9h39v0.2h0
			l0,92.6h-37.4v-23.7c-10.2,7.6-22.6,13.4-37,17.4c-10.4,2.9-21.8,4.8-34.3,5.8c-6.3,0.4-13,0.4-19.9,0.5l-131.1,0.1l0.2-27.6
			L2704.4,156.3z"/>
	</g>
</g>
</svg>
